# AST/ASF file generated using VICON BodyLanguage
# -----------------------------------------------
:version 1.10
:name VICON
:units
  mass 1.0
  length 0.45
  angle deg
:documentation
   .ast/.asf automatically generated from VICON data using
   VICON BodyBuilder and BodyLanguage model FoxedUp or BRILLIANT.MOD
:root
   order TX TY TZ RX RY RZ
   axis XYZ
   position 0 0 0  
   orientation 0 0 0 
:bonedata
  begin
     id 1 
     name lhipjoint
     direction 0.630082 -0.636569 0.44472 
     length 2.82754 
     axis 0 0 0  XYZ
  end
  begin
     id 2 
     name lfemur
     direction 0.34202 -0.939693 0  
     length 7.26371  
     axis 0 0 20  XYZ
    dof rx ry rz
    limits (-160.0 20.0)
           (-70.0 70.0)
           (-60.0 70.0)
  end
  begin
     id 3 
     name ltibia
     direction 0.34202 -0.939693 0   
     length 7.88616   
     axis 0 0 20   XYZ
    dof rx
    limits (-10.0 170.0)
  end
  begin
     id 4 
     name lfoot
     direction 0.0603448 -0.165796 0.984312   
     length 1.77861   
     axis -90 7.62852e-016 20   XYZ
    dof rx rz
    limits (-45.0 90.0)
           (-70.0 20.0)
  end
  begin
     id 5 
     name ltoes
     direction 1.53577e-011 -4.21876e-011 1   
     length 0.902235   
     axis -90 7.62852e-016 20   XYZ
    dof rx
    limits (-90.0 20.0)
  end
  begin
     id 6 
     name rhipjoint
     direction -0.656778 -0.61817 0.431866   
     length 2.9117  
     axis 0 0 0  XYZ 
  end
  begin
     id 7 
     name rfemur
     direction -0.34202 -0.939693 0   
     length 6.81603   
     axis 0 0 -20   XYZ
    dof rx ry rz
    limits (-160.0 20.0)
           (-70.0 70.0)
           (-70.0 60.0)
  end
  begin
     id 8 
     name rtibia
     direction -0.34202 -0.939693 0   
     length 8.05997   
     axis 0 0 -20   XYZ
    dof rx
    limits (-10.0 170.0)
 end
 begin
     id 9 
     name rfoot
     direction -0.0862404 -0.236944 0.967688   
     length 1.84899  
     axis -90 -7.62852e-016 -20   XYZ
    dof rx rz
    limits (-45.0 90.0)
           (-20.0 70.0)
  end
  begin
     id 10 
     name rtoes
     direction -1.53561e-011 -4.21798e-011 1   
     length 0.931579   
     axis -90 -7.62852e-016 -20   XYZ
    dof rx
    limits (-90.0 20.0)
  end
  begin
     id 11 
     name lowerback
     direction -0.0110203 0.991769 -0.127564   
     length 2.05686   
     axis 0 0 0   XYZ
    dof rx ry rz
    limits (-20.0 45.0)
           (-30.0 30.0)
           (-30.0 30.0)
  end
  begin
     id 12 
     name upperback
     direction 0.0109719 0.99993 -0.00432479   
     length 2.06234   
     axis 0 0 0   XYZ
    dof rx ry rz
    limits (-20.0 45.0)
           (-30.0 30.0)
           (-30.0 30.0)
  end
  begin
     id 13 
     name thorax
     direction 0.0173308 0.998351 0.0547306   
     length 2.09856   
     axis 0 0 0   XYZ
    dof rx ry rz
    limits (-20.0 45.0)
           (-30.0 30.0)
           (-30.0 30.0)
  end
  begin
     id 14 
     name lowerneck
     direction -0.0311736 0.989033 0.144366   
     length 1.98151   
     axis 0 0 0   XYZ
    dof rx ry rz
    limits (-20.0 45.0)
           (-30.0 30.0)
           (-30.0 30.0)
  end
  begin
     id 15 
     name upperneck
     direction 0.0421057 0.975772 -0.214698   
     length 2.01457   
     axis 0 0 0   XYZ
    dof rx ry rz
    limits (-20.0 45.0)
           (-30.0 30.0)
           (-30.0 30.0)
  end
  begin
     id 16
     name head
     direction 0.0136911 0.995958 -0.0887718  
     length 2.03562  
     axis 0 0 0   XYZ
    dof rx ry rz
    limits (-20.0 45.0)
           (-30.0 30.0)
           (-30.0 30.0)
  end
  begin
     id 17 
     name lclavicle
     direction 0.915335 0.396201 0.0720134  
     length 4.16217  
     axis 0 0 0   XYZ
    dof ry rz
    limits (-20.0 10.0)
           (0.0 20.0)
  end
  begin
     id 18 
     name lhumerus
     direction 1 -4.48965e-011 6.383e-018   
     length 4.93042   
     axis -180 -30 -90   XYZ
    dof rx ry rz
    limits (-60.0 90.0)
           (-90.0 90.0)
           (-90.0 90.0)
  end
  begin
     id 19
     name lradius
     direction 1 -4.48972e-011 8.8689e-027   
     length 3.68177   
     axis -180 -30 -90   XYZ
    dof rx
    limits (-10.0 170.0)
  end
  begin
     id 20
     name lwrist
     direction 1 -4.48953e-011 1.17971e-026   
     length 1.84089   
     axis -7.69454e-015 90 90   XYZ
    dof ry
    limits (-180.0 0.0)
 end
  begin
     id 21 
     name lhand
     direction 1 -4.49027e-011 2.35802e-026   
     length 0.721479   
     axis -1.50533e-014 90 90   XYZ
    dof rx rz
    limits (-90.0 90.0)
           (-45.0 45.0)
  end
  begin
     id 22 
     name lfingers
     direction 1 -4.48915e-011 4.72027e-026   
     length 0.581675   
     axis -3.01059e-014 90 90   XYZ
    dof rx
    limits (0.0 90.0)
  end
  begin
     id 23
     name lthumb
     direction 0.707107 -6.34948e-011 0.707107   
     length 0.835172   
     axis -90 45 -5.12164e-014   XYZ
    dof rx rz
    limits (-45.0 45.0)
           (-45.0 45.0)
  end
  begin
     id 24 
     name rclavicle
     direction -0.882781 0.469197 0.0234974   
     length 3.95647  
     axis 0 0 0   XYZ 
    dof ry rz
    limits (-10.0 20.0)
           (-20.0 0.0)
  end
  begin
     id 25 
     name rhumerus
     direction -1 -4.48965e-011 -1.54906e-018  
     length 5.07905   
     axis -180 30 90   XYZ
    dof rx ry rz
    limits (-90.0 60.0)
           (-90.0 90.0)
           (-90.0 90.0)
  end
  begin
     id 26 
     name rradius
     direction -1 -4.48972e-011 5.47489e-027   
     length 3.54394   
     axis -180 30 90   XYZ
    dof rx
    limits (-10.0 170.0)
  end
  begin
     id 27 
     name rwrist
     direction -1 -4.48955e-011 1.17969e-026   
     length 1.77197   
     axis -7.69454e-015 -90 -90   XYZ
    dof ry
    limits (-180.0 0.0)
  end
  begin
     id 28
     name rhand
     direction -1 -4.48982e-011 2.35888e-026   
     length 0.681156   
     axis -1.50533e-014 -90 -90   XYZ
    dof rx rz
    limits (-90.0 90.0)
           (-45.0 45.0)
  end
  begin
     id 29
     name rfingers
     direction -1 -4.48955e-011 4.71877e-026   
     length 0.549165   
     axis -3.01059e-014 -90 -90   XYZ
    dof rx
    limits (0.0 90.0)
  end
  begin
     id 30
     name rthumb
     direction -0.707107 -6.3491e-011 0.707107   
     length 0.788495   
     axis -90 -45 5.12164e-014   XYZ
    dof rx rz
    limits (-45.0 45.0)
           (-45.0 45.0)
  end
:hierarchy
  begin
    root lhipjoint rhipjoint lowerback
    lhipjoint lfemur
    lfemur ltibia
    ltibia lfoot
    lfoot ltoes
    rhipjoint rfemur
    rfemur rtibia
    rtibia rfoot
    rfoot rtoes
    lowerback upperback
    upperback thorax
    thorax lowerneck lclavicle rclavicle
    lowerneck upperneck
    upperneck head
    lclavicle lhumerus
    lhumerus lradius
    lradius lwrist
    lwrist lhand lthumb
    lhand lfingers
    rclavicle rhumerus
    rhumerus rradius
    rradius rwrist
    rwrist rhand rthumb
    rhand rfingers
  end

#!OML:ASF H:\Bending\Project 1\Capture day 1\Session 1\Subject.ASF
:FULLY-SPECIFIED
:DEGREES
33
root -9.93901 18.0934 -16.393 -28.6259 88.9405 -36.2132
lowerback 10.0406 0.207221 1.65538
upperback -0.494402 0.568552 1.22208
thorax -6.15582 0.254136 0.260552
lowerneck -22.5378 -2.52808 -4.81936
upperneck 33.001 -2.67652 4.15991
head 15.547 -0.895408 2.1408
rclavicle -4.96962e-016 3.97569e-015
rhumerus -32.7352 6.35326 -80.8457
rradius 35.5979
rwrist 19.073
rhand -17.8352 -14.9939
rfingers 7.12502
rthumb 8.42938 -44.8057
lclavicle -4.96962e-016 3.97569e-015
lhumerus -30.1167 -3.44103 91.0547
lradius 31.0829
lwrist 20.2675
lhand -28.8466 8.65833
lfingers 7.12502
lthumb -2.20351 38.6267
rfemur -0.733723 -2.99089 14.4319
rtibia 1.35174e-014
rfoot -7.57054 -14.8241
rtoes 4.96258
lfemur -11.7534 -12.2181 -10.9034
ltibia 19.3534
lfoot -18.9994 8.74022
ltoes -9.4069
34
root -9.96755 18.1068 -16.3984 -26.9806 88.9604 -34.902
lowerback 10.449 0.162971 1.66593
upperback -0.268267 0.524889 1.27649
thorax -6.14879 0.235845 0.316516
lowerneck -22.4932 -2.43064 -4.80304
upperneck 32.437 -2.57752 4.20568
head 15.2637 -0.856227 2.15851
rclavicle -2.5842e-015 0
rhumerus -31.7454 5.93825 -80.6875
rradius 35.2151
rwrist 19.7606
rhand -18.0659 -14.3857
rfingers 7.12502
rthumb 8.20678 -44.2063
lclavicle -2.5842e-015 0
lhumerus -29.4262 -4.00597 91.3625
lradius 31.1529
lwrist 20.1827
lhand -28.723 8.60145
lfingers 7.12502
lthumb -2.08415 38.571
rfemur -1.22933 -3.02927 14.4173
rtibia 1.51076e-014
rfoot -7.33161 -14.8508
rtoes 4.55383
lfemur -12.1809 -12.3452 -10.8339
ltibia 19.2295
lfoot -18.87 8.90285
ltoes -8.999
35
root -9.99892 18.119 -16.405 -27.0338 88.9791 -35.2457
lowerback 10.9482 0.13076 1.73258
upperback 0.00579873 0.508209 1.33522
thorax -6.14116 0.230098 0.341158
lowerneck -22.4463 -2.40316 -4.82011
upperneck 31.8077 -2.55725 4.21599
head 14.9599 -0.860343 2.1498
rclavicle 2.78299e-015 -2.38542e-015
rhumerus -30.8514 5.67809 -80.5721
rradius 35.1684
rwrist 20.223
rhand -18.0848 -13.959
rfingers 7.12502
rthumb 8.18845 -43.7803
lclavicle 2.78299e-015 -2.38542e-015
lhumerus -28.6151 -4.65628 91.6952
lradius 31.1778
lwrist 20.1635
lhand -28.6854 8.59285
lfingers 7.12502
lthumb -2.04787 38.5628
rfemur -1.67992 -3.07648 14.4273
rtibia 8.74653e-015
rfoot -7.09658 -14.8721
rtoes 4.1843
lfemur -12.6045 -12.5171 -10.7372
ltibia 19.1674
lfoot -18.7819 9.03429
ltoes -8.20519
36
root -10.0343 18.1298 -16.412 -27.7578 88.9738 -36.2282
lowerback 11.5416 0.116281 1.83037
upperback 0.327746 0.524143 1.39736
thorax -6.13462 0.240716 0.346305
lowerneck -22.4214 -2.42782 -4.84692
upperneck 31.1325 -2.5958 4.1875
head 14.6491 -0.896679 2.11477
rclavicle 1.0138e-014 1.55052e-014
rhumerus -30.1018 5.90422 -80.5774
rradius 35.5622
rwrist 20.1816
rhand -17.9475 -13.919
rfingers 7.12502
rthumb 8.32096 -43.7351
lclavicle 1.0138e-014 1.55052e-014
lhumerus -27.6785 -5.40102 92.0335
lradius 31.169
lwrist 20.216
lhand -28.7075 8.62697
lfingers 7.12502
lthumb -2.06923 38.5967
rfemur -2.10561 -3.10489 14.454
rtibia -1.74931e-014
rfoot -6.89276 -14.8779
rtoes 4.01152
lfemur -13.0336 -12.6553 -10.6206
ltibia 19.1686
lfoot -18.7117 9.12084
ltoes -7.26628
37
root -10.0748 18.1395 -16.4186 -28.1546 88.933 -36.8683
lowerback 12.2287 0.119307 1.9214
upperback 0.690003 0.568577 1.46617
thorax -6.13651 0.26696 0.356921
lowerneck -22.4254 -2.47758 -4.86914
upperneck 30.4272 -2.65883 4.12269
head 14.3379 -0.948342 2.05998
rclavicle -8.94531e-016 9.93923e-015
rhumerus -29.4588 6.73335 -80.7073
rradius 36.3049
rwrist 19.574
rhand -17.7728 -14.3099
rfingers 7.12502
rthumb 8.48958 -44.1192
lclavicle -8.94531e-016 9.93923e-015
lhumerus -26.6238 -6.21256 92.3551
lradius 31.1355
lwrist 20.3216
lhand -28.7554 8.67746
lfingers 7.12502
lthumb -2.11543 38.6467
rfemur -2.53133 -3.09859 14.4872
rtibia 1.59028e-015
rfoot -6.73989 -14.8619
rtoes 4.19784
lfemur -13.4822 -12.6699 -10.4957
ltibia 19.223
lfoot -18.6163 9.14148
ltoes -6.51019
38
root -10.1212 18.1485 -16.424 -28.0146 88.8637 -36.9719
lowerback 13.0069 0.13404 1.9809
upperback 1.08103 0.630918 1.5438
thorax -6.15707 0.304242 0.390573
lowerneck -22.4385 -2.52738 -4.88654
upperneck 29.6919 -2.71437 4.03431
head 14.0205 -0.99967 1.99733
rclavicle -4.17448e-015 -1.11319e-014
rhumerus -28.8159 8.01658 -80.9019
rradius 37.1541
rwrist 18.5714
rhand -17.6818 -15.0072
rfingers 7.12502
rthumb 8.57741 -44.813
lclavicle -4.17448e-015 -1.11319e-014
lhumerus -25.4646 -7.03097 92.6356
lradius 31.0831
lwrist 20.4466
lhand -28.7901 8.7108
lfingers 7.12502
lthumb -2.14902 38.6797
rfemur -2.97798 -3.06311 14.5218
rtibia -1.11319e-014
rfoot -6.63571 -14.8251
rtoes 4.81391
lfemur -13.9687 -12.5 -10.3713
ltibia 19.3184
lfoot -18.4531 9.0735
ltoes -6.18605
39
root -10.1737 18.1571 -16.4282 -27.9168 88.79 -37.1292
lowerback 13.8708 0.150551 2.01286
upperback 1.48919 0.6982 1.62681
thorax -6.20489 0.345838 0.443466
lowerneck -22.4222 -2.56258 -4.90804
upperneck 28.9149 -2.74505 3.9405
head 13.6834 -1.04151 1.93904
rclavicle 3.57812e-015 2.38542e-015
rhumerus -28.0448 9.44653 -81.0838
rradius 37.8269
rwrist 17.455
rhand -17.7411 -15.7888
rfingers 7.12502
rthumb 8.52022 -45.5969
lclavicle 3.57812e-015 2.38542e-015
lhumerus -24.216 -7.775 92.8509
lradius 31.0177
lwrist 20.5621
lhand -28.7743 8.7077
lfingers 7.12502
lthumb -2.13374 38.6768
rfemur -3.45832 -3.02544 14.5587
rtibia 2.22639e-014
rfoot -6.54786 -14.7773
rtoes 5.75028
lfemur -14.5143 -12.1406 -10.2518
ltibia 19.4496
lfoot -18.1987 8.90013
ltoes -6.34085
40
root -10.2318 18.1656 -16.432 -28.6691 88.7448 -38.1564
lowerback 14.8096 0.156854 2.04852
upperback 1.90487 0.75842 1.70577
thorax -6.28283 0.384832 0.490242
lowerneck -22.3373 -2.58062 -4.93971
upperneck 28.0876 -2.74993 3.85226
head 13.3163 -1.07228 1.89073
rclavicle -2.38542e-015 1.23246e-014
rhumerus -27.0467 10.7066 -81.1969
rradius 38.1155
rwrist 16.4798
rhand -17.9403 -16.4342
rfingers 7.12502
rthumb 8.32794 -46.25
lclavicle -2.38542e-015 1.23246e-014
lhumerus -22.8903 -8.35482 92.9795
lradius 30.9478
lwrist 20.6597
lhand -28.6764 8.67845
lfingers 7.12502
lthumb -2.03919 38.6484
rfemur -3.97984 -3.02335 14.6011
rtibia -1.59028e-014
rfoot -6.4214 -14.7352
rtoes 6.71547
lfemur -15.1435 -11.643 -10.1378
ltibia 19.6221
lfoot -17.8588 8.61733
ltoes -6.79477
41
root -10.2949 18.1742 -16.4365 -30.8794 88.7552 -40.6726
lowerback 15.8024 0.141595 2.12627
upperback 2.32061 0.80198 1.76953
thorax -6.38564 0.415514 0.499551
lowerneck -22.1675 -2.58577 -4.97487
upperneck 27.224 -2.73539 3.76015
head 12.9233 -1.09483 1.84672
rclavicle -4.57205e-015 -6.36111e-015
rhumerus -25.791 11.5826 -81.2215
rradius 37.959
rwrist 15.7997
rhand -18.2107 -16.807
rfingers 7.12502
rthumb 8.06702 -46.6331
lclavicle -4.57205e-015 -6.36111e-015
lhumerus -21.4961 -8.68793 93.0081
lradius 30.8845
lwrist 20.7587
lhand -28.4816 8.66341
lfingers 7.12502
lthumb -1.85102 38.6351
rfemur -4.55222 -3.0889 14.6494
rtibia -1.19271e-014
rfoot -6.19971 -14.7151
rtoes 7.33811
lfemur -15.8825 -11.087 -10.0308
ltibia 19.8501
lfoot -17.4614 8.23485
ltoes -7.22258
